<svg xmlns="http://www.w3.org/2000/svg" viewBox="0 0 200 200" width="200" height="200">
  <style>
    .node {
      fill: #f8fafc;
      stroke: #6366f1;
      stroke-width: 2;
    }
    .connection {
      fill: none;
      stroke: #64748b;
      stroke-width: 2;
      stroke-dasharray: 10;
      animation: dash 3s linear infinite;
    }
    .pulse {
      fill: #6366f1;
      transform-origin: center;
      animation: pulse 2s ease-in-out infinite;
    }
    @keyframes dash {
      to {
        stroke-dashoffset: -20;
      }
    }
    @keyframes pulse {
      0%, 100% { transform: scale(0.95); opacity: 0.5; }
      50% { transform: scale(1.05); opacity: 1; }
    }
  </style>
  
  <!-- Background -->
  <rect width="200" height="200" rx="10" fill="#f8fafc" />
  
  <!-- Center node (Context Provider) -->
  <circle class="node" cx="100" cy="100" r="30" />
  <circle class="pulse" cx="100" cy="100" r="20" />
  
  <!-- Surrounding nodes (Consumers) -->
  <circle class="node" cx="50" cy="60" r="15" />
  <circle class="node" cx="150" cy="60" r="15" />
  <circle class="node" cx="40" cy="130" r="15" />
  <circle class="node" cx="160" cy="130" r="15" />
  
  <!-- Connections -->
  <path class="connection" d="M100 70 L100 50 L50 50 L50 60" />
  <path class="connection" d="M100 70 L100 50 L150 50 L150 60" />
  <path class="connection" d="M100 130 L100 150 L40 150 L40 130" />
  <path class="connection" d="M100 130 L100 150 L160 150 L160 130" />
  
  <!-- Labels -->
  <text x="100" y="105" text-anchor="middle" font-family="Arial" font-size="10" fill="#64748b">Context</text>
  <text x="50" y="62" text-anchor="middle" font-family="Arial" font-size="8" fill="#64748b">C1</text>
  <text x="150" y="62" text-anchor="middle" font-family="Arial" font-size="8" fill="#64748b">C2</text>
  <text x="40" y="132" text-anchor="middle" font-family="Arial" font-size="8" fill="#64748b">C3</text>
  <text x="160" y="132" text-anchor="middle" font-family="Arial" font-size="8" fill="#64748b">C4</text>
</svg> 